<svg width="15" height="15" viewBox="0 0 15 15" fill="none" xmlns="http://www.w3.org/2000/svg">
<path d="M1.29289 12.2929L0.585786 13L2 14.4142L2.70711 13.7071L1.29289 12.2929ZM15 0.999999C15 0.447714 14.5523 -8.61581e-07 14 -1.11446e-06L5 -3.13672e-07C4.44772 -6.50847e-07 4 0.447715 4 0.999999C4 1.55228 4.44772 2 5 2L13 2L13 10C13 10.5523 13.4477 11 14 11C14.5523 11 15 10.5523 15 10L15 0.999999ZM2.70711 13.7071L14.7071 1.70711L13.2929 0.292893L1.29289 12.2929L2.70711 13.7071Z" fill="white"/>
</svg>
